<?xml version="1.0" standalone="no"?>
<!DOCTYPE svg PUBLIC "-//W3C//DTD SVG 20010904//EN"
 "http://www.w3.org/TR/2001/REC-SVG-20010904/DTD/svg10.dtd">
<svg version="1.0" xmlns="http://www.w3.org/2000/svg"
 width="900.000000pt" height="900.000000pt" viewBox="0 0 900.000000 900.000000"
 preserveAspectRatio="xMidYMid meet">
<metadata>
Created by potrace 1.10, written by Peter Selinger 2001-2011
</metadata>
<g transform="translate(0.000000,900.000000) scale(0.100000,-0.100000)"
fill="#000000" stroke="none">
<path d="M2945 8955 c-11 -2 -69 -9 -130 -15 -441 -44 -891 -193 -1275 -423
-587 -351 -1036 -876 -1293 -1512 -59 -146 -60 -149 -111 -328 -137 -473 -151
-1027 -39 -1522 105 -461 313 -890 617 -1271 87 -109 333 -357 442 -445 94
-77 217 -167 289 -213 61 -38 69 -43 140 -85 128 -77 371 -186 550 -245 188
-63 257 -79 555 -132 140 -25 660 -25 815 0 246 39 569 124 690 180 17 8 55
24 85 36 150 60 401 196 550 298 156 108 224 152 235 152 12 0 115 -103 115
-115 0 -3 -5 -15 -10 -26 -9 -17 5 -36 107 -143 65 -67 128 -129 140 -136 17
-10 31 -10 72 1 48 12 52 12 76 -11 36 -34 38 -50 10 -104 -14 -27 -25 -66
-25 -86 0 -32 9 -47 73 -112 192 -200 346 -358 617 -637 162 -167 297 -307
300 -312 3 -5 98 -102 210 -217 113 -114 342 -350 510 -523 505 -520 833 -850
872 -875 20 -13 59 -26 87 -30 92 -12 128 14 446 331 155 154 289 294 297 310
8 17 20 29 26 27 8 -1 12 21 12 74 0 48 -4 73 -10 69 -6 -4 -17 9 -25 28 -8
20 -42 59 -78 89 -35 29 -79 67 -99 83 -51 43 -254 225 -313 280 -27 25 -79
72 -115 103 -35 31 -107 98 -160 147 -229 215 -381 357 -465 435 -49 46 -166
157 -260 245 -93 89 -267 253 -385 365 -308 292 -589 561 -694 664 -130 128
-143 136 -205 122 -27 -6 -53 -14 -57 -19 -16 -16 -54 -5 -81 23 -24 26 -28
39 -28 85 l0 55 -120 120 c-109 109 -123 120 -156 120 -31 0 -44 8 -93 60 -32
33 -56 64 -54 68 5 11 59 97 107 170 274 420 420 797 503 1297 18 113 21 170
21 430 0 306 -3 348 -49 580 -31 161 -81 338 -134 475 -12 30 -24 64 -27 75
-9 35 -149 317 -198 400 -258 436 -603 793 -1037 1070 -185 118 -528 275 -733
335 -323 94 -544 128 -875 135 -118 2 -224 2 -235 0z m475 -380 c315 -27 571
-92 865 -219 414 -179 772 -454 1068 -819 142 -174 308 -462 391 -677 76 -195
80 -207 135 -425 5 -22 20 -96 32 -165 19 -109 22 -161 23 -415 1 -298 -5
-359 -51 -570 -199 -913 -848 -1685 -1706 -2031 -369 -149 -707 -211 -1099
-201 -207 5 -259 10 -438 44 -663 124 -1268 501 -1674 1043 -74 98 -166 234
-166 244 0 3 -17 34 -38 68 -112 184 -225 473 -283 723 -55 239 -69 364 -69
637 0 261 14 403 61 603 11 50 24 106 29 125 61 282 307 764 514 1010 305 362
581 579 980 770 445 214 924 299 1426 255z m2217 -4717 c35 -34 63 -71 63 -81
0 -80 -266 -355 -418 -431 l-33 -17 -64 62 c-36 34 -65 70 -65 79 0 9 23 34
52 55 72 55 274 260 328 333 25 34 52 61 60 62 8 0 43 -28 77 -62z m229 -163
c110 -112 111 -114 82 -172 -40 -83 -139 -214 -214 -284 -104 -97 -248 -185
-283 -174 -29 9 -192 181 -186 196 3 8 32 29 65 47 136 74 334 271 406 402 26
49 35 60 46 60 5 0 43 -34 84 -75z m159 -265 c12 -11 42 -24 66 -28 52 -9 59
-26 33 -86 -74 -171 -315 -415 -416 -419 -28 -2 -32 2 -39 30 -6 32 -31 76
-56 101 -22 23 -15 39 33 67 61 36 234 211 286 291 23 35 49 64 57 64 8 0 24
-9 36 -20z"/>
<path d="M3118 7448 c-42 -55 -54 -76 -77 -141 -66 -182 -67 -372 -2 -477 109
-176 328 -366 536 -464 22 -10 48 -23 57 -27 10 -5 43 -17 75 -27 158 -51 298
-65 384 -37 63 20 165 73 205 107 73 61 118 105 151 151 69 94 93 159 70 191
-13 18 -19 18 -72 8 -118 -24 -343 -10 -460 28 -82 26 -261 105 -305 134 -152
100 -277 216 -345 321 -59 90 -115 193 -115 210 0 15 -42 65 -55 65 -8 0 -29
-19 -47 -42z"/>
<path d="M3013 6738 c-6 -7 -20 -35 -33 -63 -62 -134 -240 -382 -430 -600 -92
-106 -312 -315 -372 -354 -75 -49 -77 -54 -50 -133 59 -169 82 -354 82 -666 0
-275 -12 -377 -61 -520 l-21 -64 20 -21 c19 -19 22 -19 45 -4 14 9 42 46 63
83 22 37 51 88 66 113 16 25 31 53 35 61 8 17 178 307 193 330 6 8 13 22 17
30 6 14 141 247 162 280 35 55 71 133 71 154 0 14 -5 37 -11 52 -15 41 13 107
55 134 92 56 202 -19 181 -123 -9 -40 -62 -97 -91 -97 -30 0 -78 -41 -101 -88
-22 -43 -89 -164 -114 -207 -10 -16 -30 -52 -44 -80 -14 -27 -34 -63 -44 -80
-10 -16 -35 -61 -56 -100 -21 -38 -57 -104 -80 -145 -43 -77 -86 -154 -125
-225 -12 -22 -32 -60 -46 -84 -30 -55 -32 -97 -4 -106 22 -7 55 8 68 30 17 32
120 130 192 184 77 58 214 151 223 151 2 0 49 25 103 56 214 121 404 199 534
219 58 9 70 20 70 64 1 86 54 345 100 484 65 201 101 301 144 402 35 81 141
292 167 330 16 24 29 52 29 63 0 18 -9 21 -67 27 -70 7 -155 28 -210 51 -17 8
-34 14 -37 14 -8 0 -145 68 -196 97 -114 66 -300 228 -374 326 -31 40 -38 44
-53 25z"/>
</g>
</svg>
